<svg
  id="Group_404"
  data-name="Group 404"
  xmlns="http://www.w3.org/2000/svg"
  xmlns:xlink="http://www.w3.org/1999/xlink"
  width="173"
  height="114.198"
  viewBox="0 0 173 114.198"
>
  <defs>
      <clipPath id="clip-path">
          <rect id="Rectangle_154" data-name="Rectangle 154" width="173" height="114.198" fill="#debaa7"></rect>
      </clipPath>
  </defs>
  <g id="Group_402" data-name="Group 402" clip-path="url(#clip-path)">
      <path id="Path_85" data-name="Path 83" d="M6.063,87.35a11.4,11.4,0,0,1-4.891-3.155,4.487,4.487,0,0,1-.653-5.171q2.967-6.567,5.549-11.767,2.718-5.42,5.526-10.626Q12.979,54,14.48,51.283t3.1-5.635q1.572-2.886,3.3-6.064t3.628-6.711a5.708,5.708,0,0,1,3.849-2.966,11.424,11.424,0,0,1,5.355-.014,12.957,12.957,0,0,1,4.962,2.42,7.328,7.328,0,0,1,2.8,4.229,4.473,4.473,0,0,1-.049.973,7.231,7.231,0,0,1-.784,2.11,29.879,29.879,0,0,0-1.4,3.938q-.958,3.1-1.954,7.15-.765,3.16-1.4,6.524a58.434,58.434,0,0,0-.859,6.328q-.068.665.322.618t.587-.616q.888-2.552,1.818-5.182T39.7,53.1q2.133-5.528,4.315-10.553,2.517-5.617,4.907-10.22,2.728-5.165,5.511-9.431a5.953,5.953,0,0,1,4.256-2.445,15.349,15.349,0,0,1,5.742.2,11.256,11.256,0,0,1,4.534,1.945q1.672,1.448.658,2.8a2.147,2.147,0,0,1-.445.893A17.9,17.9,0,0,1,67.4,28.317q-2.13,2.233-6.444,9.745T52.35,54.251q-4.283,8.73-7.5,16.614T41.675,81.641q.529,1.225-1.41,1.453a11.4,11.4,0,0,1-4.594-.587A15.911,15.911,0,0,1,30.5,79.836a7.78,7.78,0,0,1-3.067-4.87A50.5,50.5,0,0,1,26.649,62.5a55.758,55.758,0,0,1,2.137-12.891q.214-.828-.134-.874c-.232-.03-.448.11-.646.426A74.712,74.712,0,0,0,22.72,59.492q-2.1,4.843-3.86,10-1.8,5.305-2.925,9.8a53.253,53.253,0,0,0-1.379,6.918q-.155,1.758-2.865,1.976a13.3,13.3,0,0,1-5.628-.839m59.07-44.983a11.8,11.8,0,0,1,5.351-1.958A14.134,14.134,0,0,1,79.5,42.954q3.908,2.538,3.2,8.035a7.449,7.449,0,0,1-6.214,6.8,62.187,62.187,0,0,1-6.272,1.267,34.845,34.845,0,0,1-4.48.388c-.295.045-.456.146-.482.3q-1.384,6.493,1.3,8.082t7.185-3.071q1.632-1.689,3.984-4.093t4.9-4.8c.933-.874,1.73-1.61,2.416-2.236.029-.239.046-.483.079-.72a55.068,55.068,0,0,1,1.35-7.7,22.175,22.175,0,0,1,2.053-5.573,5.462,5.462,0,0,1,3.514-2.356,13.582,13.582,0,0,1,4.651-.375,7.81,7.81,0,0,1,3.589,1.205,1.333,1.333,0,0,1,.338,2.2l-1.585,1.983a59.435,59.435,0,0,0-3.658,8.429,20.939,20.939,0,0,0-1.375,5.808q-.018,1.856.952.534,1.8-2.547,3.793-5.576,1.1-1.682,2.23-3.445t2.269-3.45a5.04,5.04,0,0,0,.707-2.037q.34-1.715.514-2.31a6.808,6.808,0,0,1,.758-1.706,5.424,5.424,0,0,1,3.468-2.405,13.41,13.41,0,0,1,4.648-.395,7.637,7.637,0,0,1,3.533,1.215,1.437,1.437,0,0,1,.4,2.264q-.124.172-.642.741t-1.455,1.851q-2.112,2.745-2.605,8.38a38.041,38.041,0,0,0-.147,5.431q-.038,1.479.761.034,1.25-2.2,2.662-4.456t2.814-4.442q2.806-4.367,4.917-7.735t1.968-4.292q-.074-.48-1.959-.436t-1.571-.873q.259-.759,5.162-2.95a23.534,23.534,0,0,1,7.526-2.331q3.684-.15,2.92,2.141T133.3,36.452a66.647,66.647,0,0,0-4.777,6.067q-1.433,2-2.972,4.276t-3.069,4.633q-3.1,4.9-5.233,8.748a48.315,48.315,0,0,0-3.308,7.014q-.465,1.4-2.324.622-1.876.1-4.008-2.447a15,15,0,0,1-2.589-4.29,13.984,13.984,0,0,1-.988-3.838,53.837,53.837,0,0,1-.5-5.576q-.051-.824-.528.006-1.44,2.189-2.859,4.524t-2.71,4.5q-2.045,3.417-3.553,6.032t-2,3.333q-3.027,4.173-5.45-2.489a27.512,27.512,0,0,1-1.493-7.239c-.048-.631-.08-1.251-.1-1.863l-.89,1.088q-2.522,3.036-5.123,6.4t-4.914,6.032a8.653,8.653,0,0,1-5.1,2.714,15.015,15.015,0,0,1-8.107-.832,8.093,8.093,0,0,1-5.272-5.012,20.281,20.281,0,0,1-.688-11.845,25.573,25.573,0,0,1,5.785-10.572,21.872,21.872,0,0,1,4.611-4.076m1.582,13.6q1.666-.484,2.535-.731.649-.214,1.314-.429t1.42-.483q.468-.147,1.2-1.281a17.709,17.709,0,0,0,1.321-2.474,10.071,10.071,0,0,0,.707-2.528q.156-1.2-.461-1.517-.323-.139-1.486.418a10.1,10.1,0,0,0-3.651,3.3,30.972,30.972,0,0,0-3.18,5.388c-.134.272-.043.384.278.335M171.884,1.772A11.9,11.9,0,0,0,167.623.253a16.406,16.406,0,0,0-5.176-.091,4.59,4.59,0,0,0-3.572,1.986q-2.945,4.955-5.489,10.035-2.578,5.124-4.663,10.247-2.014,4.85-3.69,10.174a95.024,95.024,0,0,0-2.521,9.918q-.846,4.328,3.445,5.426t4.836-1.747a52.913,52.913,0,0,1,2.5-8.855,86.2,86.2,0,0,1,4.318-9.778q2.544-5.081,5.881-10.435,3.221-5.11,7.348-10.738,1.855-2.44,1.861-2.4.881-1.158-.814-2.219M145.016,51.043a13.418,13.418,0,0,0-4.978.708q-1.5.572-2.591,3.8a12.149,12.149,0,0,0-.514,6.245q.4,2.131,4.642,2.027t5.014-1.7a48.373,48.373,0,0,1,2.4-4.285,4.394,4.394,0,0,0,0-4.934,4.5,4.5,0,0,0-3.974-1.864m1.412,29.5c-2.212-2.119-5.845-2.774-9.172-3.093-5.052-.483-10.193-.813-15.338-.9s-10.346-.062-15.369.275A233.5,233.5,0,0,0,75.823,80.8a231.869,231.869,0,0,0-29.71,8.3c-4.775,1.666-9.557,3.648-14.2,5.659s-9.154,4.211-13.507,6.526c-7.672,4.076-11.142,8.055-10.4,11.45s3.068.182,8.133-2.5c3.7-1.96,7.643-3.9,11.8-5.73s8.529-3.612,13.059-5.238A211.779,211.779,0,0,1,70.171,91.43c5.075-1.038,10.428-1.791,15.855-2.358s11.026-1,16.553-1.033a252.635,252.635,0,0,1,34.32,2.147,77.611,77.611,0,0,1,7.759,1.3c.005.01,4.722.2,4.893-1.742a14.169,14.169,0,0,0-.01-3.616c-.183-2.252-.9-3.464-3.115-5.581" transform="translate(0 0)" fill="#debaa7"></path>
  </g>
</svg>